inDegrees=no
num_controls=7
num_derivatives=13
num_iterations=133
num_multipliers=7
num_parameters=0
num_slacks=7
num_states=26
objective=5.163651
objective_accelerations=0.645496
objective_balance=0.017876
objective_effort=0.163514
objective_height=4.240846
objective_ligament=0.095919
solver_duration=1474.803808
status=Solve_Succeeded
success=true
DataType=double
version=3
OpenSimVersion=4.4-2022-07-23-0e9fedc
endheader
time	/jointset/ground_pelvis/pelvis_tilt/value	/jointset/ground_pelvis/pelvis_tx/value	/jointset/ground_pelvis/pelvis_ty/value	/jointset/hip_l/hip_flexion_l/value	/jointset/hip_l/hip_adduction_l/value	/jointset/hip_l/hip_rotation_l/value	/jointset/back/lumbar_extension/value	/jointset/patellofemoral_l/patellar_flexion_l/value	/jointset/knee_l/knee_flexion_l/value	/jointset/knee_l/knee_adduction_l/value	/jointset/knee_l/knee_rotation_l/value	/jointset/ankle_l/ankle_angle_l/value	/jointset/subtalar_l/subtalar_angle_l/value	/jointset/ground_pelvis/pelvis_tilt/speed	/jointset/ground_pelvis/pelvis_tx/speed	/jointset/ground_pelvis/pelvis_ty/speed	/jointset/hip_l/hip_flexion_l/speed	/jointset/hip_l/hip_adduction_l/speed	/jointset/hip_l/hip_rotation_l/speed	/jointset/back/lumbar_extension/speed	/jointset/patellofemoral_l/patellar_flexion_l/speed	/jointset/knee_l/knee_flexion_l/speed	/jointset/knee_l/knee_adduction_l/speed	/jointset/knee_l/knee_rotation_l/speed	/jointset/ankle_l/ankle_angle_l/speed	/jointset/subtalar_l/subtalar_angle_l/speed	/forceset/tau_hip_flexion_l	/forceset/tau_hip_adduction_l	/forceset/tau_hip_rotation_l	/forceset/tau_knee_flexion_l	/forceset/tau_ankle_angle_l	/forceset/tau_subtalar_angle_l	/forceset/tau_lumbar_extension	lambda_cid13_p0	lambda_cid13_p1	lambda_cid13_p2	lambda_cid13_p3	lambda_cid13_p4	lambda_cid13_p5	lambda_cid14_p0	/jointset/ground_pelvis/pelvis_tilt/accel	/jointset/ground_pelvis/pelvis_tx/accel	/jointset/ground_pelvis/pelvis_ty/accel	/jointset/hip_l/hip_flexion_l/accel	/jointset/hip_l/hip_adduction_l/accel	/jointset/hip_l/hip_rotation_l/accel	/jointset/back/lumbar_extension/accel	/jointset/patellofemoral_l/patellar_flexion_l/accel	/jointset/knee_l/knee_flexion_l/accel	/jointset/knee_l/knee_adduction_l/accel	/jointset/knee_l/knee_rotation_l/accel	/jointset/ankle_l/ankle_angle_l/accel	/jointset/subtalar_l/subtalar_angle_l/accel	gamma_cid13_p0	gamma_cid13_p1	gamma_cid13_p2	gamma_cid13_p3	gamma_cid13_p4	gamma_cid13_p5	gamma_cid14_p0
1.5	-0.3171949480160591	0.05970505653669746	0.8010288306740602	0.9466809679017824	-0.3531029230877133	-0.07267350369044068	-0.3221799729094038	0.7852483229950336	0.7852483229950721	-0.02190324519956529	-0.1725271311937804	0.2737078347873599	0.1614500999451016	0.436614905631878	0.2482237812288137	0.4547185670797493	-2.152363395069399	0.03351713176813113	-0.5937418911282281	0.617855209581923	-2.112921292378512	-2.112921292378513	-0.2434803431520924	0.02956953990441845	-0.5536076055790056	-0.1780688724748311	-0.1198590052475235	0.02838780251552844	-0.002100233744023074	-0.1329676403135894	-0.03853697404341146	0.02260718219898717	0.118232909047803	-34.81192940644765	-6.221269589835487	3.564474923068933	-2.958137230343588	-431.6705602178261	-67.90738508913	-11.52337649710035	0.4499314156793159	0.520953258932537	-0.6940451359558766	-1.151377929408146	0.335486125404966	-0.3842464164542386	1.437782056006379	-1.134294654467751	-1.134294654467752	-0.1884235379214373	0.2724729457959649	-0.4696177636693071	0.4286374726314162	5.248701896841672e-07	3.178577983281708e-07	-5.242330352147352e-06	-1.801620238745288e-07	1.009766358213788e-06	1.721683313215181e-06	6.65535968940266e-07
1.51	-0.3128063436589602	0.06221302146904164	0.8055404281192493	0.925101249075502	-0.3527531518177379	-0.07862532941911858	-0.315931277411667	0.7640644275653745	0.7640644275653978	-0.0243543918141527	-0.1722173836622941	0.2681482593034709	0.1596878006939376	0.4410283217717923	0.2533296496244283	0.4475013085682028	-2.163273145107131	0.03643786142222385	-0.596539201071035	0.6317878863499472	-2.123558393655143	-2.123558393655144	-0.2467383006019587	0.03241679786627109	-0.5582173945252572	-0.1743631113399735	-0.1157330481677554	0.02747608093853287	-0.001425542552043078	-0.1300390970072564	-0.0380735042951175	0.02155094962253141	0.1147463896166854	-34.59394409027318	-5.909427182319773	3.638931971060957	-2.785645697706445	-428.7573951101879	-67.43866806358282	-12.38933415460031	0.4254588009529029	0.4994524148735775	-0.7502974998398638	-1.014610918478838	0.2711653570417883	-0.214164547952696	1.356609944858444	-0.9836445344994474	-0.983644534499569	-0.392933527154931	0.2954646684778728	-0.4430799325499161	0.3461834826815484	5.120437215744366e-07	7.160004235195736e-07	-5.14012635538616e-06	-1.202349835876011e-07	1.038687961053429e-06	2.010984169249698e-06	6.772429188322502e-07
1.52	-0.3083759227229017	0.06477085484234156	0.8099769067211057	0.903421665273342	-0.352374013456892	-0.08460246650018835	-0.3095461352547174	0.7427831157889151	0.7427831157888983	-0.02683780833896184	-0.1718782410617602	0.2625453018356289	0.1579634866638759	0.4449782214239301	0.2581974694199645	0.4396947984132227	-2.172336390245786	0.0393905499415458	-0.5988041616041937	0.6451445414242922	-2.132404561741324	-2.132404561741327	-0.249934325197257	0.03544855371204272	-0.5622840023693834	-0.170471828254373	-0.1116070910879726	0.02656435936146835	-0.0007508513601158073	-0.1271105537009373	-0.03761003454684943	0.02049471704597608	0.1112598701855998	-34.37043302606738	-5.601602912259159	3.717517578554856	-2.660878101474103	-425.7791270812573	-67.06169816180804	-13.25291189002484	0.357228118123966	0.4733435389168759	-0.8118954646425888	-0.7820769495929936	0.3418778984508134	-0.2777765345245812	1.322577717270531	-0.7761080163779317	-0.776108016377933	-0.1760369670078518	0.3093725225797891	-0.3609815432441832	0.4657418627799886	4.914757176280932e-07	1.059921269658641e-06	-4.972275503535928e-06	-6.459258213609664e-08	1.053374340738736e-06	2.239051286063199e-06	6.770777329542757e-07
1.53	-0.3039082486441645	0.06737603124761102	0.8143324568830832	0.881660737724135	-0.3519651119684179	-0.09060067815195012	-0.3030304707335277	0.7214223357338156	0.7214223357338105	-0.02935190220319572	-0.171508402700734	0.2569043380330869	0.1562791242146768	0.4484826898617987	0.2627830170769554	0.4313233725913873	-2.179522812928294	0.04239269980578019	-0.6007592071962619	0.6578783833471886	-2.139435539702857	-2.139435539702859	-0.2528548362640596	0.03854831885622877	-0.5658220674634136	-0.1663738471571135	-0.1077523264217095	0.02558211397280393	-1.02290991155316e-05	-0.1238571584880492	-0.03799885517707433	0.01936959350273701	0.1079247672362323	-34.44821578231885	-5.233469017815565	3.812030100096252	-2.20200089060099	-423.070139474681	-66.61212531946089	-14.11410330168218	0.3360229880430218	0.4429439653106226	-0.8633348093828216	-0.6379075352956312	0.2803849403576741	-0.1418390113143121	1.232290509806371	-0.6193377412104982	-0.6193377412104458	-0.3455912629799982	0.3138460184996921	-0.3371363317660256	0.3861587730258927	4.626823318553491e-07	1.346231475554603e-06	-4.734674868153595e-06	-1.35026094472292e-08	1.052935795822563e-06	2.402057554954369e-06	6.642984028207203e-07
1.54	-0.2994077365247639	0.07002541984669453	0.8186015790531567	0.8598377494265635	-0.3515259886993081	-0.09661593434759493	-0.2963907671771066	0.7000006968880749	0.7000006968880667	-0.03189430779538523	-0.1711068531866285	0.2512306101117472	0.1546366080844158	0.4515458295566617	0.2670399081827766	0.4224092000324133	-2.184748539919432	0.04543490606794133	-0.6022130703789861	0.6699523484703725	-2.144576319871172	-2.144576319871174	-0.2555966707894055	0.04179078432688276	-0.5688368261287888	-0.1621025644667768	-0.1038975617554178	0.02459986858409035	0.0007303931618537428	-0.1206037632751696	-0.03838767580731926	0.01824446995942748	0.1045896642869059	-34.52022456151229	-4.868935747878311	3.910077734673356	-1.791672551651023	-420.294527723032	-66.24846098916947	-14.97362555741335	0.2689623695227914	0.4076122286829679	-0.9204448120702829	-0.3899378113190768	0.3498891780361657	-0.1775400526558286	1.190602357328004	-0.3980684577342362	-0.398068457734237	-0.1403016587165031	0.3379125878734014	-0.2563202575131985	0.500402181395415	4.174155881804858e-07	1.827579027963364e-06	-4.430933179335462e-06	6.907701423684082e-08	1.020570301253688e-06	2.59788213347716e-06	6.618896052039178e-07
1.55	-0.294878953936291	0.0727158644962705	0.8227789531903099	0.8379721284962206	-0.3510565219903077	-0.1026442742269187	-0.2896339782441521	0.6785370472756208	0.6785370472756432	-0.03446306997367434	-0.1706731453729207	0.2455295385050626	0.1530374256687808	0.4541161041108672	0.2710053372562211	0.4129858118547594	-2.188059973367094	0.0484324984374904	-0.6032732736907059	0.681261986135958	-2.147848650043934	-2.147848650043931	-0.2582320103064907	0.04503717999465318	-0.5712799632551415	-0.1577426809081171	-0.09931377538674271	0.02250715485205304	0.001537508598865027	-0.1190083105021	-0.03677929316582325	0.01721416107189815	0.1007878809749563	-33.95737866900836	-4.590270312334067	3.945888576707854	-1.907029253014523	-417.8421042378261	-66.32037644580103	-15.82774968853356	0.2369143365490821	0.3845063697480576	-0.9650755516819173	-0.2543395951750317	0.2710876087588102	-0.04232229220373684	1.079626673456019	-0.2462077571385331	-0.2462077571378072	-0.3363269606010041	0.3303055858957618	-0.2235628738406522	0.4024632182193278	3.531686712705731e-07	2.533643523093381e-06	-4.050985494167391e-06	1.879381923284248e-07	9.514194081719178e-07	2.831519112227686e-06	6.714294646172869e-07
1.56	-0.2903272977346404	0.07544466306119549	0.8268597354994729	0.8160828745346701	-0.3505578006891393	-0.1086776285037151	-0.282768396494084	0.6570497958694567	0.6570497958694308	-0.03706042091974626	-0.1702045130965321	0.239806985040386	0.1514815784437563	0.4561205521922578	0.2747106912525818	0.4030908344343633	-2.189475146162168	0.05128582450081651	-0.6032159498733658	0.691710911892832	-2.149296678620351	-2.149296678620343	-0.2613144243194291	0.04877567684909712	-0.5731331977272693	-0.1534355263447331	-0.09472998901800035	0.02041444112003083	0.002344624035330561	-0.1174128577290206	-0.03517091052432456	0.01618385218439662	0.09698609766306904	-33.39244980667817	-4.312180023783807	3.98203503759064	-2.052673737845445	-415.3698053308466	-66.4754340488044	-16.66704716868438	0.1557970749598016	0.3555972132662361	-1.014762660618716	-0.01068568080174476	0.3210359167916098	0.045965373156234	1.018459975585675	-0.03320813846525813	-0.03320813846525791	-0.2297165578871607	0.4363328252081159	-0.1383397266682058	0.4898563823402904	1.497536316517426e-07	3.660873199761007e-06	-2.526065919449491e-06	4.005847875461491e-07	6.511243415281016e-07	2.694251780435317e-06	5.805132177587639e-07
1.57	-0.2857586744956001	0.07820886893888916	0.8308392172138912	0.7941903421721735	-0.3500294308920524	-0.1147136807118216	-0.2758020488343032	0.635558142839178	0.6355581428392139	-0.03968226249356504	-0.1697014405565129	0.2340693543994105	0.1499712136892667	0.4575410987250921	0.2780561155051596	0.3927363776815225	-2.188699641086995	0.0543608723677135	-0.6038131418381805	0.7014121771042182	-2.148704547185904	-2.148704547185897	-0.263131698160636	0.05189601718837746	-0.5743179647445433	-0.148660103795222	-0.09116067819745499	0.02037643861956709	0.003042509214003315	-0.1139980485415921	-0.03595880509902839	0.01403367925840735	0.0938276147288513	-33.71470437729203	-3.410827241535079	3.939870351055957	-1.348173007356428	-413.162477414005	-65.14595053477589	-17.48627819880442	0.1256926782413047	0.3130437927845061	-1.056212268154459	0.1713648442340188	0.2956227750719225	-0.08520165597473021	0.9239933500110568	0.1547829446792443	0.1547829446791441	-0.1683106228093603	0.2588919435949531	-0.09711363769897968	0.4667495910802938	-2.276215613532334e-07	5.314559353350638e-06	4.300685172056812e-07	7.304631541715475e-07	6.189905793173038e-08	2.093354060464336e-06	3.640268380603774e-07
1.58	-0.2811777439440724	0.08100433481141478	0.8347130693436734	0.772315504108948	-0.3494713339056069	-0.1207502328745077	-0.2687430818111879	0.6140822829553327	0.6140822829553569	-0.04232439237105328	-0.1691653631519635	0.2283221623985744	0.1485076760402375	0.4585820146897654	0.2809626902189712	0.3819649175071659	-2.185936286309537	0.0572312623719262	-0.6033159407899639	0.7102347845594433	-2.146138049340277	-2.146138049340271	-0.2653720850247107	0.055376649739934	-0.5750454696994971	-0.1440701052527575	-0.08759136737681776	0.02033843611915558	0.003740394392110611	-0.1105832393541393	-0.0367466996737169	0.01188350633249726	0.09066913179470784	-34.03825304449538	-2.513352569052848	3.903012828137887	-0.6414452191774371	-411.0159502146524	-63.82544034283526	-18.28001754732476	0.07987096132757815	0.2678273055130457	-1.098163344921851	0.3868842596551366	0.280104344254798	0.2648439757625314	0.8427284243534493	0.3616651437705833	0.3616651437705792	-0.3143391624607438	0.5083912676633634	-0.04688731420412095	0.4527715809309915	-4.595360663447206e-07	6.16653158984787e-06	2.258304126152369e-06	9.073254928573767e-07	-3.148097153517486e-07	1.602278185748118e-06	2.177213165943627e-07
1.59	-0.2765886778093918	0.08382675285506395	0.8384772416721343	0.7504786445799134	-0.3488848331052189	-0.1267780620496157	-0.2616002258605302	0.5926421972628392	0.5926421972628995	-0.04498877474172217	-0.1685933709633853	0.2225704405952545	0.1470902295598545	0.4591399226704027	0.2834552927779273	0.3708144244005265	-2.181088062849077	0.0600712304018818	-0.6022175826989591	0.7181848690978123	-2.141547668997128	-2.141547668997123	-0.2674365200200158	0.05898677241240809	-0.5751972075336532	-0.1393930796548933	-0.08353679057272588	0.01839195119149089	0.004276063753639323	-0.1082684076491732	-0.03647326662184663	0.01097729454671706	0.08722880857653455	-33.92951747902524	-2.260360313181943	4.0015036730934	-0.3973749071095832	-409.1893342496718	-64.02135022482899	-19.04258830498483	0.03000456349102372	0.2303045044482385	-1.131852005728234	0.5858542619579666	0.2851983426434807	0.03720379460577443	0.748417997390821	0.5574102570614322	0.5574102570614603	-0.1412391746423982	0.2825834093515766	0.01609936893207728	0.4778550831685426	-4.940396376036267e-07	5.930463510291191e-06	2.555819897494771e-06	8.765232221966592e-07	-4.031032246391756e-07	1.260246243877642e-06	1.666612455865619e-07
